<mxfile host="app.diagrams.net" modified="2024-03-21T07:32:50.186Z" agent="Mozilla/5.0 (Windows NT 10.0; Win64; x64) AppleWebKit/537.36 (KHTML, like Gecko) Chrome/122.0.0.0 Safari/537.36" etag="JuFGXIC2vERkJf-JH5G2" version="24.0.7" type="google">
  <diagram id="C5RBs43oDa-KdzZeNtuy" name="Page-1">
    <mxGraphModel grid="0" page="0" gridSize="15" guides="1" tooltips="1" connect="1" arrows="1" fold="1" pageScale="1" pageWidth="827" pageHeight="1169" background="#009999" math="0" shadow="1">
      <root>
        <mxCell id="WIyWlLk6GJQsqaUBKTNV-0" />
        <mxCell id="WIyWlLk6GJQsqaUBKTNV-1" parent="WIyWlLk6GJQsqaUBKTNV-0" />
        <mxCell id="Ib3rceeKrTLk9fMT16KW-3" style="edgeStyle=orthogonalEdgeStyle;rounded=1;orthogonalLoop=1;jettySize=auto;html=1;entryX=0.5;entryY=0;entryDx=0;entryDy=0;strokeColor=#60E696;fontColor=default;fillColor=#F694C1;labelBackgroundColor=none;shadow=1;flowAnimation=1;" edge="1" parent="WIyWlLk6GJQsqaUBKTNV-1" source="Ib3rceeKrTLk9fMT16KW-0" target="Ib3rceeKrTLk9fMT16KW-2">
          <mxGeometry relative="1" as="geometry" />
        </mxCell>
        <mxCell id="Ib3rceeKrTLk9fMT16KW-0" value="Start" style="rounded=1;whiteSpace=wrap;html=1;arcSize=50;labelBackgroundColor=none;fillColor=#F694C1;strokeColor=#AF45ED;fontColor=#095C86;glass=1;shadow=1;" vertex="1" parent="WIyWlLk6GJQsqaUBKTNV-1">
          <mxGeometry x="351" y="-95" width="126" height="60" as="geometry" />
        </mxCell>
        <mxCell id="Ib3rceeKrTLk9fMT16KW-5" style="edgeStyle=orthogonalEdgeStyle;rounded=1;orthogonalLoop=1;jettySize=auto;html=1;entryX=0.5;entryY=0;entryDx=0;entryDy=0;strokeColor=#60E696;fontColor=default;fillColor=#F694C1;labelBackgroundColor=none;shadow=1;flowAnimation=1;" edge="1" parent="WIyWlLk6GJQsqaUBKTNV-1" source="Ib3rceeKrTLk9fMT16KW-2" target="Ib3rceeKrTLk9fMT16KW-4">
          <mxGeometry relative="1" as="geometry" />
        </mxCell>
        <mxCell id="Ib3rceeKrTLk9fMT16KW-2" value="&lt;font style=&quot;font-size: 12px;&quot; face=&quot;Helvetica&quot;&gt;array=[&lt;span style=&quot;text-align: start;&quot;&gt;“Hello”, “2”, “world”, “:-)”&lt;/span&gt;]&lt;/font&gt;" style="rounded=1;whiteSpace=wrap;html=1;strokeColor=#AF45ED;fontColor=#095C86;fillColor=#F694C1;labelBackgroundColor=none;glass=1;shadow=1;" vertex="1" parent="WIyWlLk6GJQsqaUBKTNV-1">
          <mxGeometry x="322.5" y="8" width="182.5" height="60" as="geometry" />
        </mxCell>
        <mxCell id="Ib3rceeKrTLk9fMT16KW-8" style="edgeStyle=orthogonalEdgeStyle;rounded=1;hachureGap=4;orthogonalLoop=1;jettySize=auto;html=1;entryX=0.5;entryY=0;entryDx=0;entryDy=0;fontFamily=Architects Daughter;fontSource=https%3A%2F%2Ffonts.googleapis.com%2Fcss%3Ffamily%3DArchitects%2BDaughter;flowAnimation=1;shadow=1;curved=0;labelBackgroundColor=none;strokeColor=#60E696;fontColor=default;" edge="1" parent="WIyWlLk6GJQsqaUBKTNV-1" source="Ib3rceeKrTLk9fMT16KW-4">
          <mxGeometry relative="1" as="geometry">
            <mxPoint x="414" y="201.9999999999999" as="targetPoint" />
          </mxGeometry>
        </mxCell>
        <mxCell id="Ib3rceeKrTLk9fMT16KW-4" value="len=array.Length-1" style="rounded=1;whiteSpace=wrap;html=1;strokeColor=#AF45ED;fontColor=#095C86;fillColor=#F694C1;labelBackgroundColor=none;glass=1;shadow=1;" vertex="1" parent="WIyWlLk6GJQsqaUBKTNV-1">
          <mxGeometry x="322.5" y="105" width="183" height="60" as="geometry" />
        </mxCell>
        <mxCell id="Ib3rceeKrTLk9fMT16KW-56" style="edgeStyle=orthogonalEdgeStyle;rounded=0;orthogonalLoop=1;jettySize=auto;html=1;entryX=1;entryY=0;entryDx=0;entryDy=0;strokeColor=#60E696;fontColor=#095C86;fillColor=#F694C1;flowAnimation=1;shadow=1;" edge="1" parent="WIyWlLk6GJQsqaUBKTNV-1" source="Ib3rceeKrTLk9fMT16KW-7" target="Ib3rceeKrTLk9fMT16KW-12">
          <mxGeometry relative="1" as="geometry" />
        </mxCell>
        <mxCell id="Ib3rceeKrTLk9fMT16KW-7" value="count=0" style="rounded=1;whiteSpace=wrap;html=1;strokeColor=#AF45ED;fontColor=#095C86;fillColor=#F694C1;labelBackgroundColor=none;glass=1;shadow=1;" vertex="1" parent="WIyWlLk6GJQsqaUBKTNV-1">
          <mxGeometry x="322.5" y="327" width="183" height="60" as="geometry" />
        </mxCell>
        <mxCell id="Ib3rceeKrTLk9fMT16KW-25" style="edgeStyle=orthogonalEdgeStyle;rounded=0;orthogonalLoop=1;jettySize=auto;html=1;exitX=0;exitY=0;exitDx=0;exitDy=0;strokeColor=#60E696;fontColor=#095C86;fillColor=#F694C1;shadow=1;flowAnimation=1;" edge="1" parent="WIyWlLk6GJQsqaUBKTNV-1" source="Ib3rceeKrTLk9fMT16KW-12">
          <mxGeometry relative="1" as="geometry">
            <mxPoint x="223" y="684" as="targetPoint" />
          </mxGeometry>
        </mxCell>
        <mxCell id="Ib3rceeKrTLk9fMT16KW-30" style="edgeStyle=orthogonalEdgeStyle;rounded=0;orthogonalLoop=1;jettySize=auto;html=1;strokeColor=#60E696;fontColor=#095C86;fillColor=#F694C1;flowAnimation=1;shadow=1;" edge="1" parent="WIyWlLk6GJQsqaUBKTNV-1" source="Ib3rceeKrTLk9fMT16KW-12">
          <mxGeometry relative="1" as="geometry">
            <mxPoint x="651" y="736" as="targetPoint" />
          </mxGeometry>
        </mxCell>
        <mxCell id="Ib3rceeKrTLk9fMT16KW-12" value="" style="rounded=1;whiteSpace=wrap;html=1;strokeColor=#AF45ED;fontColor=#095C86;fillColor=#F694C1;labelBackgroundColor=none;glass=1;shadow=1;rotation=-45;arcSize=5;" vertex="1" parent="WIyWlLk6GJQsqaUBKTNV-1">
          <mxGeometry x="364.5" y="538.21" width="99" height="99" as="geometry" />
        </mxCell>
        <mxCell id="Ib3rceeKrTLk9fMT16KW-13" value="i&amp;lt;len" style="text;html=1;align=center;verticalAlign=middle;whiteSpace=wrap;rounded=0;fontColor=#095C86;" vertex="1" parent="WIyWlLk6GJQsqaUBKTNV-1">
          <mxGeometry x="383.75" y="576" width="60" height="30" as="geometry" />
        </mxCell>
        <mxCell id="Ib3rceeKrTLk9fMT16KW-26" value="Yes" style="text;html=1;align=center;verticalAlign=middle;whiteSpace=wrap;rounded=0;fontColor=#095C86;fillColor=default;gradientColor=#95e9ea;" vertex="1" parent="WIyWlLk6GJQsqaUBKTNV-1">
          <mxGeometry x="250" y="567" width="60" height="18" as="geometry" />
        </mxCell>
        <mxCell id="Ib3rceeKrTLk9fMT16KW-29" value="No" style="text;html=1;align=center;verticalAlign=middle;whiteSpace=wrap;rounded=0;fontColor=#095C86;fillColor=default;gradientColor=#95e9ea;" vertex="1" parent="WIyWlLk6GJQsqaUBKTNV-1">
          <mxGeometry x="522" y="567" width="60" height="18" as="geometry" />
        </mxCell>
        <mxCell id="Ib3rceeKrTLk9fMT16KW-34" style="edgeStyle=orthogonalEdgeStyle;rounded=0;orthogonalLoop=1;jettySize=auto;html=1;entryX=0.5;entryY=0;entryDx=0;entryDy=0;strokeColor=#60E696;fontColor=#095C86;fillColor=#F694C1;flowAnimation=1;shadow=1;" edge="1" parent="WIyWlLk6GJQsqaUBKTNV-1" source="Ib3rceeKrTLk9fMT16KW-32" target="Ib3rceeKrTLk9fMT16KW-33">
          <mxGeometry relative="1" as="geometry" />
        </mxCell>
        <mxCell id="Ib3rceeKrTLk9fMT16KW-32" value="new_array" style="shape=document;whiteSpace=wrap;html=1;boundedLbl=1;strokeColor=#AF45ED;fontColor=#095C86;fillColor=#F694C1;shadow=1;gradientColor=#FAF5FF;gradientDirection=north;" vertex="1" parent="WIyWlLk6GJQsqaUBKTNV-1">
          <mxGeometry x="832" y="1171.74" width="120" height="80" as="geometry" />
        </mxCell>
        <mxCell id="Ib3rceeKrTLk9fMT16KW-33" value="End" style="rounded=1;whiteSpace=wrap;html=1;arcSize=50;labelBackgroundColor=none;fillColor=#F694C1;strokeColor=#AF45ED;fontColor=#095C86;glass=1;shadow=1;" vertex="1" parent="WIyWlLk6GJQsqaUBKTNV-1">
          <mxGeometry x="829" y="1289.74" width="126" height="60" as="geometry" />
        </mxCell>
        <mxCell id="Ib3rceeKrTLk9fMT16KW-38" style="edgeStyle=orthogonalEdgeStyle;rounded=0;orthogonalLoop=1;jettySize=auto;html=1;entryX=0.5;entryY=0;entryDx=0;entryDy=0;strokeColor=#60E696;fontColor=#095C86;fillColor=#F694C1;flowAnimation=1;shadow=1;" edge="1" parent="WIyWlLk6GJQsqaUBKTNV-1" source="Ib3rceeKrTLk9fMT16KW-36" target="Ib3rceeKrTLk9fMT16KW-7">
          <mxGeometry relative="1" as="geometry" />
        </mxCell>
        <mxCell id="Ib3rceeKrTLk9fMT16KW-36" value="i=0" style="rounded=1;whiteSpace=wrap;html=1;strokeColor=#AF45ED;fontColor=#095C86;fillColor=#F694C1;labelBackgroundColor=none;glass=1;shadow=1;" vertex="1" parent="WIyWlLk6GJQsqaUBKTNV-1">
          <mxGeometry x="322" y="202" width="183" height="60" as="geometry" />
        </mxCell>
        <mxCell id="Ib3rceeKrTLk9fMT16KW-41" style="edgeStyle=orthogonalEdgeStyle;rounded=0;orthogonalLoop=1;jettySize=auto;html=1;exitX=0;exitY=0;exitDx=0;exitDy=0;strokeColor=#60E696;fontColor=#095C86;fillColor=#F694C1;shadow=1;flowAnimation=1;" edge="1" parent="WIyWlLk6GJQsqaUBKTNV-1">
          <mxGeometry relative="1" as="geometry">
            <mxPoint x="30" y="828" as="targetPoint" />
            <mxPoint x="153" y="752.79" as="sourcePoint" />
          </mxGeometry>
        </mxCell>
        <mxCell id="Ib3rceeKrTLk9fMT16KW-43" value="Yes" style="text;html=1;align=center;verticalAlign=middle;whiteSpace=wrap;rounded=0;fontColor=#095C86;fillColor=default;gradientColor=#95e9ea;" vertex="1" parent="WIyWlLk6GJQsqaUBKTNV-1">
          <mxGeometry x="59" y="731.79" width="60" height="18" as="geometry" />
        </mxCell>
        <mxCell id="Ib3rceeKrTLk9fMT16KW-44" value="No" style="text;html=1;align=center;verticalAlign=middle;whiteSpace=wrap;rounded=0;fontColor=#095C86;fillColor=default;gradientColor=#95e9ea;" vertex="1" parent="WIyWlLk6GJQsqaUBKTNV-1">
          <mxGeometry x="331" y="731.79" width="60" height="18" as="geometry" />
        </mxCell>
        <mxCell id="Ib3rceeKrTLk9fMT16KW-45" value="" style="rounded=1;whiteSpace=wrap;html=1;strokeColor=#AF45ED;fontColor=#095C86;fillColor=#F694C1;labelBackgroundColor=none;glass=1;shadow=1;rotation=-45;arcSize=5;" vertex="1" parent="WIyWlLk6GJQsqaUBKTNV-1">
          <mxGeometry x="173.5" y="703" width="99" height="99" as="geometry" />
        </mxCell>
        <mxCell id="Ib3rceeKrTLk9fMT16KW-51" style="edgeStyle=orthogonalEdgeStyle;rounded=0;orthogonalLoop=1;jettySize=auto;html=1;strokeColor=#60E696;fontColor=#095C86;fillColor=#F694C1;shadow=1;endArrow=none;endFill=0;flowAnimation=1;" edge="1" parent="WIyWlLk6GJQsqaUBKTNV-1">
          <mxGeometry relative="1" as="geometry">
            <mxPoint x="232" y="929" as="targetPoint" />
            <mxPoint x="454" y="879" as="sourcePoint" />
            <Array as="points">
              <mxPoint x="454" y="929" />
            </Array>
          </mxGeometry>
        </mxCell>
        <mxCell id="Ib3rceeKrTLk9fMT16KW-46" value="array[i].Length()&amp;lt;=3" style="text;html=1;align=center;verticalAlign=middle;whiteSpace=wrap;rounded=0;fontColor=#095C86;" vertex="1" parent="WIyWlLk6GJQsqaUBKTNV-1">
          <mxGeometry x="162" y="739" width="123" height="30" as="geometry" />
        </mxCell>
        <mxCell id="Ib3rceeKrTLk9fMT16KW-49" style="edgeStyle=orthogonalEdgeStyle;rounded=0;orthogonalLoop=1;jettySize=auto;html=1;strokeColor=#60E696;fontColor=#095C86;fillColor=#F694C1;exitX=0.551;exitY=0.986;exitDx=0;exitDy=0;exitPerimeter=0;flowAnimation=1;entryX=0.985;entryY=0.012;entryDx=0;entryDy=0;entryPerimeter=0;" edge="1" parent="WIyWlLk6GJQsqaUBKTNV-1">
          <mxGeometry relative="1" as="geometry">
            <mxPoint x="39.120000000000005" y="889.1599999999999" as="sourcePoint" />
            <mxPoint x="413.78998928598753" y="520.5965250886434" as="targetPoint" />
            <Array as="points">
              <mxPoint x="39" y="929" />
              <mxPoint x="232" y="929" />
              <mxPoint x="232" y="1031" />
              <mxPoint x="-100" y="1031" />
              <mxPoint x="-100" y="663" />
              <mxPoint x="162" y="663" />
              <mxPoint x="162" y="503" />
              <mxPoint x="414" y="503" />
            </Array>
          </mxGeometry>
        </mxCell>
        <mxCell id="Ib3rceeKrTLk9fMT16KW-47" value="count+=1&lt;div style=&quot;border-color: var(--border-color);&quot;&gt;i+=1&lt;/div&gt;" style="rounded=1;whiteSpace=wrap;html=1;strokeColor=#AF45ED;fontColor=#095C86;fillColor=#F694C1;glass=1;shadow=1;" vertex="1" parent="WIyWlLk6GJQsqaUBKTNV-1">
          <mxGeometry x="-27" y="829" width="120" height="60" as="geometry" />
        </mxCell>
        <mxCell id="Ib3rceeKrTLk9fMT16KW-52" value="i=0&lt;div&gt;count=0&lt;/div&gt;" style="rounded=1;whiteSpace=wrap;html=1;strokeColor=#AF45ED;fontColor=#095C86;fillColor=#F694C1;labelBackgroundColor=none;glass=1;shadow=1;" vertex="1" parent="WIyWlLk6GJQsqaUBKTNV-1">
          <mxGeometry x="559" y="736" width="183" height="60" as="geometry" />
        </mxCell>
        <mxCell id="Ib3rceeKrTLk9fMT16KW-53" style="edgeStyle=orthogonalEdgeStyle;rounded=1;orthogonalLoop=1;jettySize=auto;html=1;entryX=0.5;entryY=0;entryDx=0;entryDy=0;strokeColor=#60E696;fontColor=default;fillColor=#F694C1;labelBackgroundColor=none;shadow=1;flowAnimation=1;" edge="1" parent="WIyWlLk6GJQsqaUBKTNV-1" source="Ib3rceeKrTLk9fMT16KW-54">
          <mxGeometry relative="1" as="geometry">
            <mxPoint x="652.5" y="958" as="targetPoint" />
          </mxGeometry>
        </mxCell>
        <mxCell id="Ib3rceeKrTLk9fMT16KW-54" value="new_array=[]" style="rounded=1;whiteSpace=wrap;html=1;strokeColor=#AF45ED;fontColor=#095C86;fillColor=#F694C1;labelBackgroundColor=none;glass=1;shadow=1;" vertex="1" parent="WIyWlLk6GJQsqaUBKTNV-1">
          <mxGeometry x="544" y="861" width="218" height="60" as="geometry" />
        </mxCell>
        <mxCell id="Ib3rceeKrTLk9fMT16KW-55" style="edgeStyle=orthogonalEdgeStyle;rounded=0;orthogonalLoop=1;jettySize=auto;html=1;entryX=0.5;entryY=0;entryDx=0;entryDy=0;strokeColor=#60E696;fontColor=#095C86;fillColor=#F694C1;flowAnimation=1;shadow=1;" edge="1" parent="WIyWlLk6GJQsqaUBKTNV-1" target="Ib3rceeKrTLk9fMT16KW-54">
          <mxGeometry relative="1" as="geometry">
            <mxPoint x="652.5" y="796" as="sourcePoint" />
          </mxGeometry>
        </mxCell>
        <mxCell id="Ib3rceeKrTLk9fMT16KW-68" style="edgeStyle=orthogonalEdgeStyle;rounded=0;orthogonalLoop=1;jettySize=auto;html=1;exitX=0;exitY=0;exitDx=0;exitDy=0;strokeColor=#60E696;fontColor=#095C86;fillColor=#F694C1;shadow=1;flowAnimation=1;" edge="1" parent="WIyWlLk6GJQsqaUBKTNV-1" source="Ib3rceeKrTLk9fMT16KW-70">
          <mxGeometry relative="1" as="geometry">
            <mxPoint x="462" y="1120.95" as="targetPoint" />
          </mxGeometry>
        </mxCell>
        <mxCell id="Ib3rceeKrTLk9fMT16KW-69" style="edgeStyle=orthogonalEdgeStyle;rounded=0;orthogonalLoop=1;jettySize=auto;html=1;strokeColor=#60E696;fontColor=#095C86;fillColor=#F694C1;flowAnimation=1;shadow=1;" edge="1" parent="WIyWlLk6GJQsqaUBKTNV-1" source="Ib3rceeKrTLk9fMT16KW-70">
          <mxGeometry relative="1" as="geometry">
            <mxPoint x="890" y="1172.95" as="targetPoint" />
          </mxGeometry>
        </mxCell>
        <mxCell id="Ib3rceeKrTLk9fMT16KW-70" value="" style="rounded=1;whiteSpace=wrap;html=1;strokeColor=#AF45ED;fontColor=#095C86;fillColor=#F694C1;labelBackgroundColor=none;glass=1;shadow=1;rotation=-45;arcSize=5;" vertex="1" parent="WIyWlLk6GJQsqaUBKTNV-1">
          <mxGeometry x="603.5" y="975.1600000000001" width="99" height="99" as="geometry" />
        </mxCell>
        <mxCell id="Ib3rceeKrTLk9fMT16KW-71" value="i&amp;lt;len" style="text;html=1;align=center;verticalAlign=middle;whiteSpace=wrap;rounded=0;fontColor=#095C86;" vertex="1" parent="WIyWlLk6GJQsqaUBKTNV-1">
          <mxGeometry x="622.75" y="1012.95" width="60" height="30" as="geometry" />
        </mxCell>
        <mxCell id="Ib3rceeKrTLk9fMT16KW-72" value="Yes" style="text;html=1;align=center;verticalAlign=middle;whiteSpace=wrap;rounded=0;fontColor=#095C86;fillColor=default;gradientColor=#95e9ea;" vertex="1" parent="WIyWlLk6GJQsqaUBKTNV-1">
          <mxGeometry x="489" y="1003.95" width="60" height="18" as="geometry" />
        </mxCell>
        <mxCell id="Ib3rceeKrTLk9fMT16KW-73" value="No" style="text;html=1;align=center;verticalAlign=middle;whiteSpace=wrap;rounded=0;fontColor=#095C86;fillColor=default;gradientColor=#95e9ea;" vertex="1" parent="WIyWlLk6GJQsqaUBKTNV-1">
          <mxGeometry x="761" y="1003.95" width="60" height="18" as="geometry" />
        </mxCell>
        <mxCell id="Ib3rceeKrTLk9fMT16KW-74" style="edgeStyle=orthogonalEdgeStyle;rounded=0;orthogonalLoop=1;jettySize=auto;html=1;exitX=0;exitY=0;exitDx=0;exitDy=0;strokeColor=#60E696;fontColor=#095C86;fillColor=#F694C1;shadow=1;flowAnimation=1;" edge="1" parent="WIyWlLk6GJQsqaUBKTNV-1">
          <mxGeometry relative="1" as="geometry">
            <mxPoint x="269" y="1264.95" as="targetPoint" />
            <mxPoint x="392" y="1189.74" as="sourcePoint" />
          </mxGeometry>
        </mxCell>
        <mxCell id="Ib3rceeKrTLk9fMT16KW-75" value="Yes" style="text;html=1;align=center;verticalAlign=middle;whiteSpace=wrap;rounded=0;fontColor=#095C86;fillColor=default;gradientColor=#95e9ea;" vertex="1" parent="WIyWlLk6GJQsqaUBKTNV-1">
          <mxGeometry x="298" y="1168.74" width="60" height="18" as="geometry" />
        </mxCell>
        <mxCell id="Ib3rceeKrTLk9fMT16KW-76" value="No" style="text;html=1;align=center;verticalAlign=middle;whiteSpace=wrap;rounded=0;fontColor=#095C86;fillColor=default;gradientColor=#95e9ea;" vertex="1" parent="WIyWlLk6GJQsqaUBKTNV-1">
          <mxGeometry x="570" y="1168.74" width="60" height="18" as="geometry" />
        </mxCell>
        <mxCell id="Ib3rceeKrTLk9fMT16KW-77" value="" style="rounded=1;whiteSpace=wrap;html=1;strokeColor=#AF45ED;fontColor=#095C86;fillColor=#F694C1;labelBackgroundColor=none;glass=1;shadow=1;rotation=-45;arcSize=5;" vertex="1" parent="WIyWlLk6GJQsqaUBKTNV-1">
          <mxGeometry x="412.5" y="1139.95" width="99" height="99" as="geometry" />
        </mxCell>
        <mxCell id="Ib3rceeKrTLk9fMT16KW-79" value="array[i].Length()&amp;lt;=3" style="text;html=1;align=center;verticalAlign=middle;whiteSpace=wrap;rounded=0;fontColor=#095C86;" vertex="1" parent="WIyWlLk6GJQsqaUBKTNV-1">
          <mxGeometry x="401" y="1175.95" width="123" height="30" as="geometry" />
        </mxCell>
        <mxCell id="Ib3rceeKrTLk9fMT16KW-80" style="edgeStyle=orthogonalEdgeStyle;rounded=0;orthogonalLoop=1;jettySize=auto;html=1;strokeColor=#60E696;fontColor=#095C86;fillColor=#F694C1;exitX=0.551;exitY=0.986;exitDx=0;exitDy=0;exitPerimeter=0;flowAnimation=1;entryX=0.985;entryY=0.012;entryDx=0;entryDy=0;entryPerimeter=0;" edge="1" parent="WIyWlLk6GJQsqaUBKTNV-1">
          <mxGeometry relative="1" as="geometry">
            <mxPoint x="278.12" y="1326.11" as="sourcePoint" />
            <mxPoint x="652.7899892859875" y="957.5465250886434" as="targetPoint" />
            <Array as="points">
              <mxPoint x="278" y="1365.95" />
              <mxPoint x="471" y="1365.95" />
              <mxPoint x="471" y="1467.95" />
              <mxPoint x="139" y="1467.95" />
              <mxPoint x="139" y="1099.95" />
              <mxPoint x="401" y="1099.95" />
              <mxPoint x="401" y="939.95" />
              <mxPoint x="653" y="939.95" />
            </Array>
          </mxGeometry>
        </mxCell>
        <mxCell id="Ib3rceeKrTLk9fMT16KW-81" value="new_array[count]=array[i]&lt;div&gt;count+=1&lt;/div&gt;&lt;div&gt;i+=1&lt;/div&gt;" style="rounded=1;whiteSpace=wrap;html=1;strokeColor=#AF45ED;fontColor=#095C86;fillColor=#F694C1;glass=1;shadow=1;" vertex="1" parent="WIyWlLk6GJQsqaUBKTNV-1">
          <mxGeometry x="192" y="1265.95" width="159" height="73" as="geometry" />
        </mxCell>
        <mxCell id="Ib3rceeKrTLk9fMT16KW-83" value="" style="edgeStyle=orthogonalEdgeStyle;rounded=0;orthogonalLoop=1;jettySize=auto;html=1;strokeColor=#60E696;fontColor=#095C86;fillColor=#F694C1;shadow=1;endArrow=classic;endFill=1;flowAnimation=1;" edge="1" parent="WIyWlLk6GJQsqaUBKTNV-1">
          <mxGeometry relative="1" as="geometry">
            <mxPoint x="453" y="813" as="targetPoint" />
            <mxPoint x="285" y="755.04347826087" as="sourcePoint" />
            <Array as="points" />
          </mxGeometry>
        </mxCell>
        <mxCell id="Ib3rceeKrTLk9fMT16KW-82" value="&lt;span style=&quot;background-color: initial;&quot;&gt;i+=1&lt;/span&gt;" style="rounded=1;whiteSpace=wrap;html=1;strokeColor=#AF45ED;fontColor=#095C86;fillColor=#F694C1;glass=1;shadow=1;" vertex="1" parent="WIyWlLk6GJQsqaUBKTNV-1">
          <mxGeometry x="389" y="815" width="120" height="60" as="geometry" />
        </mxCell>
        <mxCell id="Ib3rceeKrTLk9fMT16KW-84" style="edgeStyle=orthogonalEdgeStyle;rounded=0;orthogonalLoop=1;jettySize=auto;html=1;strokeColor=#60E696;fontColor=#095C86;fillColor=#F694C1;shadow=1;endArrow=none;endFill=0;flowAnimation=1;" edge="1" parent="WIyWlLk6GJQsqaUBKTNV-1">
          <mxGeometry relative="1" as="geometry">
            <mxPoint x="475" y="1366.96" as="targetPoint" />
            <mxPoint x="697" y="1316.96" as="sourcePoint" />
            <Array as="points">
              <mxPoint x="697" y="1366.96" />
            </Array>
          </mxGeometry>
        </mxCell>
        <mxCell id="Ib3rceeKrTLk9fMT16KW-85" value="" style="edgeStyle=orthogonalEdgeStyle;rounded=0;orthogonalLoop=1;jettySize=auto;html=1;strokeColor=#60E696;fontColor=#095C86;fillColor=#F694C1;shadow=1;endArrow=classic;endFill=1;flowAnimation=1;" edge="1" parent="WIyWlLk6GJQsqaUBKTNV-1">
          <mxGeometry relative="1" as="geometry">
            <mxPoint x="696" y="1250.96" as="targetPoint" />
            <mxPoint x="528" y="1193.00347826087" as="sourcePoint" />
            <Array as="points" />
          </mxGeometry>
        </mxCell>
        <mxCell id="Ib3rceeKrTLk9fMT16KW-86" value="&lt;span style=&quot;background-color: initial;&quot;&gt;i+=1&lt;/span&gt;" style="rounded=1;whiteSpace=wrap;html=1;strokeColor=#AF45ED;fontColor=#095C86;fillColor=#F694C1;glass=1;shadow=1;" vertex="1" parent="WIyWlLk6GJQsqaUBKTNV-1">
          <mxGeometry x="632" y="1252.96" width="120" height="60" as="geometry" />
        </mxCell>
      </root>
    </mxGraphModel>
  </diagram>
</mxfile>
